<?xml version="1.0" encoding="UTF-8" standalone="no"?>
<!-- Created with Inkscape (http://www.inkscape.org/) -->

<svg
   xmlns:dc="http://purl.org/dc/elements/1.1/"
   xmlns:cc="http://creativecommons.org/ns#"
   xmlns:rdf="http://www.w3.org/1999/02/22-rdf-syntax-ns#"
   xmlns:svg="http://www.w3.org/2000/svg"
   xmlns="http://www.w3.org/2000/svg"
   xmlns:sodipodi="http://sodipodi.sourceforge.net/DTD/sodipodi-0.dtd"
   xmlns:inkscape="http://www.inkscape.org/namespaces/inkscape"
   width="1300"
   height="250"
   viewBox="0 0 1218.75 234.37502"
   id="svg2"
   version="1.1"
   inkscape:version="0.92.1 r15371"
   sodipodi:docname="PowderMotionLabs_Monochrome.svg"
   inkscape:export-filename="D:\syncthing\PowderMotionLabs\Logo\PowderMotionLabs_OrangeWhiteOnBlack.png"
   inkscape:export-xdpi="90"
   inkscape:export-ydpi="90"
   style="shape-rendering:crispEdges">
  <defs
     id="defs4">
    <clipPath
       clipPathUnits="userSpaceOnUse"
       id="clipPath5903">
      <rect
         style="fill:none;fill-opacity:1;stroke:none;stroke-width:1.84608352;stroke-linecap:butt;stroke-linejoin:round;stroke-miterlimit:4;stroke-dasharray:none;stroke-opacity:1;paint-order:markers fill stroke"
         id="rect5905"
         width="1584.2181"
         height="193.18297"
         x="-40.104572"
         y="774.32745" />
    </clipPath>
    <clipPath
       clipPathUnits="userSpaceOnUse"
       id="clipPath6043">
      <rect
         style="fill:none;fill-opacity:1;stroke:none;stroke-width:1.84608352;stroke-linecap:butt;stroke-linejoin:round;stroke-miterlimit:4;stroke-dasharray:none;stroke-opacity:1;paint-order:markers fill stroke"
         id="rect6045"
         width="1451.7787"
         height="210.80621"
         x="-386.51413"
         y="1019.8179" />
    </clipPath>
    <clipPath
       clipPathUnits="userSpaceOnUse"
       id="clipPath6047">
      <rect
         style="fill:none;fill-opacity:1;stroke:none;stroke-width:1.84608352;stroke-linecap:butt;stroke-linejoin:round;stroke-miterlimit:4;stroke-dasharray:none;stroke-opacity:1;paint-order:markers fill stroke"
         id="rect6049"
         width="1451.7787"
         height="210.80621"
         x="-386.51413"
         y="1019.8179" />
    </clipPath>
    <clipPath
       clipPathUnits="userSpaceOnUse"
       id="clipPath4767">
      <rect
         style="fill:none;fill-opacity:1;stroke:none;stroke-width:2.76732302;stroke-linecap:butt;stroke-linejoin:round;stroke-miterlimit:4;stroke-dasharray:none;stroke-opacity:1;paint-order:markers fill stroke"
         id="rect4769"
         width="1225.0625"
         height="224.06447"
         x="-275.14481"
         y="1010.5372" />
    </clipPath>
    <clipPath
       clipPathUnits="userSpaceOnUse"
       id="clipPath4779">
      <rect
         style="fill:none;fill-opacity:1;stroke:none;stroke-width:2.76732302;stroke-linecap:butt;stroke-linejoin:round;stroke-miterlimit:4;stroke-dasharray:none;stroke-opacity:1;paint-order:markers fill stroke"
         id="rect4781"
         width="1225.0625"
         height="224.06447"
         x="-393.14325"
         y="1011.863" />
    </clipPath>
  </defs>
  <sodipodi:namedview
     id="base"
     pagecolor="#404040"
     bordercolor="#959797"
     borderopacity="1"
     inkscape:pageopacity="0"
     inkscape:pageshadow="2"
     inkscape:zoom="1"
     inkscape:cx="583.16826"
     inkscape:cy="126.73847"
     inkscape:document-units="px"
     inkscape:current-layer="g4694"
     showgrid="true"
     inkscape:snap-intersection-paths="false"
     inkscape:object-paths="false"
     inkscape:object-nodes="false"
     inkscape:snap-smooth-nodes="false"
     showguides="false"
     inkscape:window-width="1920"
     inkscape:window-height="1017"
     inkscape:window-x="1912"
     inkscape:window-y="-8"
     inkscape:window-maximized="1"
     units="px"
     inkscape:showpageshadow="false"
     showborder="true"
     fit-margin-top="0"
     fit-margin-left="0"
     fit-margin-right="0"
     fit-margin-bottom="0"
     inkscape:snap-global="false"
     inkscape:pagecheckerboard="true">
    <inkscape:grid
       type="xygrid"
       id="grid3414"
       originx="155.06291"
       originy="-21.179926"
       spacingx="1"
       spacingy="1" />
  </sodipodi:namedview>
  <metadata
     id="metadata7">
    <rdf:RDF>
      <cc:Work
         rdf:about="">
        <dc:format>image/svg+xml</dc:format>
        <dc:type
           rdf:resource="http://purl.org/dc/dcmitype/StillImage" />
        <dc:title />
      </cc:Work>
    </rdf:RDF>
  </metadata>
  <g
     inkscape:label="Layer 1"
     inkscape:groupmode="layer"
     id="layer1"
     transform="translate(155.06291,-796.80726)">
    <g
       id="g4694"
       clip-path="none"
       transform="translate(236.75451,-214.02608)">
      <path
         style="fill:#100000;fill-opacity:1;fill-rule:evenodd;stroke:#000000;stroke-width:1.3;stroke-linecap:round;stroke-linejoin:round;stroke-miterlimit:4;stroke-dasharray:none;stroke-opacity:1"
         clip-path="none"
         d="m 1262.8066,153.59375 -458.79293,1.22266 c -7.75915,4.38926 -15.58274,9.12101 -23.29297,14.22265 0.89881,1.01123 1.77845,2.02038 2.6543,3.0293 124.22178,-3.81757 277.5933,-7.62166 479.4609,-12.12109 0.1567,-5.43659 -0.029,-6.35352 -0.029,-6.35352 z m -462.13863,1.23047 -33.27344,0.0898 c 4.27556,4.28085 8.35158,8.59545 12.2168,12.90235 6.97009,-4.62295 14.03329,-8.95342 21.05664,-12.99219 z m -35.54297,0.0957 -13.28711,0.0352 c -7.16784,4.03241 -14.39515,8.35842 -21.54687,12.99609 1.8922,1.86895 3.74031,3.74632 5.55273,5.62695 12.05775,-0.39572 24.38536,-0.79326 37.03906,-1.1875 1.77939,-1.24211 3.56575,-2.47084 5.36133,-3.67382 -4.13982,-4.60722 -8.50838,-9.22529 -13.11914,-13.79688 z m -19.89062,0.0527 -28.86133,0.0762 c 3.98442,3.47088 7.8373,6.99868 11.52929,10.56836 5.75317,-3.75346 11.55154,-7.28645 17.33204,-10.64453 z m -31.3086,0.084 -14.25781,0.0371 c -7.20708,4.02891 -14.48026,8.35442 -21.68164,12.99414 2.41184,2.39713 4.73602,4.80761 7.01758,7.2207 9.91205,-0.35248 19.93464,-0.70322 30.25976,-1.05273 3.71136,-2.6627 7.4689,-5.24141 11.25195,-7.73438 -4.01985,-3.87866 -8.22345,-7.70892 -12.58984,-11.46484 z m -24.19336,0.0645 -25.5625,0.0664 c 3.52072,3.09247 6.939,6.22785 10.23047,9.39648 5.09156,-3.3104 10.21736,-6.46143 15.33203,-9.46289 z m -30.45117,0.0801 -11.80078,0.0312 c -7.24055,4.02013 -14.55833,8.35474 -21.80274,12.99219 2.97806,2.97816 5.84177,5.97423 8.61524,8.9707 7.56528,-0.29464 15.3535,-0.58756 23.16015,-0.8789 4.65491,-3.4454 9.39397,-6.75395 14.17579,-9.92579 -3.94925,-3.7859 -8.0669,-7.52513 -12.34766,-11.18945 z m -24.99023,0.0664 -22.3418,0.0605 c 3.06766,2.71275 6.05821,5.45541 8.94922,8.22657 4.45043,-2.8839 8.92423,-5.64083 13.39258,-8.28711 z m -29.67188,0.0801 -9.27148,0.0234 c -7.29687,4.02134 -14.67391,8.34675 -21.98633,12.99805 3.5987,3.62095 7.02462,7.26334 10.32226,10.90234 5.23539,-0.2256 10.45541,-0.45081 15.80274,-0.67382 5.63446,-4.31753 11.41119,-8.42937 17.25586,-12.33204 -3.88008,-3.69534 -7.92549,-7.34296 -12.12305,-10.91796 z m -25.75391,0.0684 -19.13085,0.0508 c 2.61675,2.3303 5.1759,4.6819 7.6621,7.05468 3.81251,-2.46219 7.64225,-4.8184 11.46875,-7.10546 z m -28.91406,0.0762 -6.72851,0.0176 c -7.35249,4.02234 -14.79177,8.34332 -22.17188,13.00781 4.28244,4.33541 8.33364,8.697 12.1875,13.04492 2.68166,-0.12885 5.34231,-0.25889 8.05078,-0.38672 6.66951,-5.30483 13.5652,-10.31543 20.56641,-15.02148 -3.81459,-3.6094 -7.78685,-7.17139 -11.9043,-10.66211 z m -26.51758,0.0703 -8.12946,-0.28751 -7.78069,0.33051 c 2.16819,1.94585 4.29333,3.90839 6.37109,5.88281 3.17283,-2.04218 6.3559,-4.0048 9.53906,-5.92578 z m -28.15234,0.0762 -4.18945,0.01 c -7.40233,4.02381 -14.89876,8.35498 -22.3418,13.02929 5.01326,5.10646 9.70863,10.24539 14.13672,15.35157 7.74209,-6.41232 15.83855,-12.4064 24.08203,-17.98438 -3.74901,-3.5241 -7.6486,-6.9996 -11.6875,-10.40625 z m -27.27539,0.0723 -6.66291,-1.48638 -6.06951,1.51958 c 1.73047,1.56401 3.4388,3.13625 5.11133,4.71875 2.53602,-1.62698 5.07801,-3.20162 7.62109,-4.75195 z m -27.39063,0.0723 -1.66406,0.006 c -7.44803,4.02256 -15.0002,8.36767 -22.50195,13.04883 4.56716,4.68047 8.85872,9.38707 12.93555,14.06641 7.31684,-6.02771 14.94224,-11.68168 22.70117,-16.9668 -3.68303,-3.43921 -7.50964,-6.8312 -11.47071,-10.1543 z m -28.03711,0.0762 -4.79871,-1.88889 -4.75402,1.91428 c 1.29544,1.17871 2.58714,2.35944 3.84961,3.54882 1.89819,-1.21383 3.80043,-2.40301 5.70312,-3.57421 z m -55.38085,0.14648 -2.98093,-2.15699 -3.4429,2.17457 c 0.8652,0.79407 1.73679,1.5864 2.58789,2.38476 1.2774,-0.81423 2.55654,-1.60849 3.83594,-2.40234 z m -54.11719,-0.16406 -2.58001,-1.74611 -3.03132,1.87892 c 0.44166,0.40791 2.3277,1.4386 2.76563,1.84766 0.65626,-0.41696 2.18893,-1.56906 2.8457,-1.98047 z m 83.20508,0.37304 c -7.32884,3.9443 -14.76166,8.21108 -22.15039,12.79297 4.12352,4.25153 8.03006,8.52164 11.75,12.77149 6.88742,-5.64399 14.04025,-10.95907 21.31445,-15.94727 -3.51097,-3.25657 -7.15275,-6.46769 -10.91406,-9.61719 z m -53.67774,0.97653 c -6.88315,3.71431 -13.85237,7.7114 -20.78906,11.98632 3.68529,3.82262 7.20858,7.65591 10.56836,11.47657 6.45401,-5.26109 13.13638,-10.23088 19.92578,-14.91797 -3.13563,-2.88901 -6.37153,-5.74159 -9.70508,-8.54492 z m -53.67969,0.97851 c -6.4366,3.48265 -12.94372,7.20837 -19.42773,11.17969 3.25402,3.39541 6.39482,6.79607 9.39258,10.18945 6.01833,-4.88069 12.22875,-9.50948 18.53515,-13.89258 -2.7578,-2.52373 -5.59045,-5.0193 -8.5,-7.47656 z M 225.25,159.15039 c -5.98729,3.24833 -12.03362,6.69929 -18.0625,10.36914 2.82556,2.96585 5.58246,5.93646 8.21289,8.90039 5.57883,-4.50119 11.31529,-8.78842 17.13867,-12.86328 -2.3751,-2.15868 -4.8024,-4.29703 -7.28906,-6.40625 z m -53.67773,0.97852 c -5.53896,3.01316 -11.12616,6.18969 -16.70118,9.5625 2.40633,2.54059 4.76198,5.08218 7.02539,7.62109 5.14207,-4.12834 10.41237,-8.07857 15.75977,-11.8457 -1.98948,-1.79573 -4.01691,-3.57698 -6.08398,-5.33789 z m -55.64017,1.28234 -13.36765,8.45982 c 0,0 3.93427,4.22354 5.82422,6.33399 4.70118,-3.75597 9.50803,-7.36159 14.37891,-10.81641 -1.60268,-1.4366 -6.83548,-3.9774 -6.83548,-3.9774 z m -55.268414,-0.55495 -11.991004,8.31644 c 0,0 4.696906,4.24488 6.208177,5.9249 4.258327,-3.38586 8.603991,-6.64188 13,-9.78125 -1.213557,-1.08023 -7.217173,-4.46009 -7.217173,-4.46009 z m 668.242564,7.9972 c -2.58847,1.69543 -5.16513,3.42945 -7.72266,5.20312 4.06351,-0.1363 8.34043,-0.27221 12.47071,-0.4082 -1.55747,-1.60203 -3.13234,-3.20215 -4.74805,-4.79492 z m -53.68945,1.03515 c -3.01089,1.97908 -6.00108,4.01687 -8.9668,6.10156 4.81793,-0.17699 9.53675,-0.35523 14.45117,-0.53125 -1.79128,-1.86202 -3.61531,-3.71971 -5.48437,-5.57031 z m 104.13476,0.0469 c -1.16644,0.77962 -2.33041,1.56715 -3.49023,2.36328 1.79341,-0.0557 3.61214,-0.11037 5.41797,-0.16602 -0.64065,-0.73243 -1.27499,-1.46375 -1.92774,-2.19726 z m -157.84375,1 c -3.52073,2.32277 -7.01574,4.71734 -10.46875,7.18554 5.51577,-0.22475 11.17604,-0.44742 16.81836,-0.66992 -2.07102,-2.17686 -4.17394,-4.35194 -6.34961,-6.51562 z m -53.69531,1.03711 c -4.14929,2.74736 -8.25905,5.59989 -12.30469,8.55078 6.51595,-0.29817 13.02394,-0.59744 19.70899,-0.89063 -2.40072,-2.55945 -4.85755,-5.11636 -7.4043,-7.66015 z m -53.69727,1.03906 c -4.91296,3.26498 -9.76568,6.68002 -14.51953,10.23242 7.61909,-0.39488 15.38506,-0.78312 23.20899,-1.16797 -2.79481,-3.02781 -5.68855,-6.05396 -8.68946,-9.06445 z m -53.6914,1.04101 c -5.83892,3.8946 -11.58998,8.00155 -17.1836,12.30079 9.00299,-0.52985 18.1322,-1.04614 27.35547,-1.55664 -3.24981,-3.58684 -6.63058,-7.17581 -10.17187,-10.74415 z m -53.68945,1.04493 c -6.94354,4.64837 -13.75359,9.59625 -20.31641,14.81445 10.66668,-0.70818 21.38433,-1.40292 32.22656,-2.07617 -3.77005,-4.24809 -7.72989,-8.50744 -11.91015,-12.73828 z m -53.68946,1.04687 c -7.28458,4.89484 -14.42975,10.1034 -21.27344,15.625 0.50341,0.62171 0.9803,1.23478 1.47461,1.85352 10.52435,-0.77019 21.04519,-1.52218 31.58789,-2.25196 0.41862,-0.38375 0.82666,-0.77712 1.24805,-1.1582 -4.09849,-4.68692 -8.4393,-9.3942 -13.03711,-14.06836 z m -53.6875,1.04688 c -6.85585,4.62407 -13.58169,9.52637 -20.04297,14.70507 1.49037,1.84898 2.92683,3.67829 4.33789,5.49805 7.31092,-0.57519 14.59075,-1.14187 21.83594,-1.69531 1.92892,-1.876 3.88051,-3.73303 5.875,-5.54883 -3.79374,-4.31838 -7.78817,-8.65224 -12.00586,-12.95898 z m -53.6914,1.04492 c -6.42692,4.35117 -12.73209,8.94896 -18.8086,13.78711 2.54632,3.17327 4.96487,6.3015 7.28125,9.38086 3.98785,-0.33087 7.98815,-0.66422 11.9375,-0.98828 3.40864,-3.53983 6.9313,-6.98922 10.57227,-10.32618 -3.48697,-3.95087 -7.14052,-7.91305 -10.98242,-11.85351 z m -53.6836,1.07031 c -5.99622,4.07535 -11.89408,8.34484 -17.58203,12.84375 3.65702,4.57779 7.07644,9.07212 10.25391,13.43555 0.69074,-0.0594 1.40067,-0.1205 2.08984,-0.17969 4.78832,-5.34546 9.87164,-10.47239 15.1875,-15.37695 -3.16946,-3.57439 -6.48913,-7.15729 -9.94922,-10.72266 z m -53.69922,1.05664 c -5.56331,3.79604 -11.04285,7.75368 -16.33789,11.91406 3.57527,4.49539 6.94124,8.91916 10.05078,13.20313 4.79034,-5.39261 9.88456,-10.56015 15.20899,-15.50586 -2.85472,-3.20449 -5.83349,-6.41451 -8.92188,-9.61133 z m -53.701169,1.0586 c -5.130612,3.51478 -10.186015,7.1677 -15.085937,10.99218 3.174481,4.00936 7.910156,9.98242 7.910156,9.98242 0,0 10.185574,-7.89895 15.072266,-12.46875 -2.538841,-2.83673 -5.174418,-5.67545 -7.896485,-8.50585 z m -53.701172,1.05859 c -0.633429,0.43569 -11.24963,9.0985 -11.880461,9.53848 l 8.339446,8.3248 c 3.353904,-3.5866 6.830077,-7.07529 10.419922,-10.45508 -2.222085,-2.4714 -4.517659,-4.94183 -6.878907,-7.4082 z m 128.761721,22.28906 c -1.1667,1.08376 -3.45508,3.2832 -3.45508,3.2832 l 2.68233,1.98261 2.95439,-2.4787 c 0,0 -1.43791,-1.85162 -2.18164,-2.78711 z m -53.67969,1.1875 c -2.49513,2.33555 -7.269531,7.15039 -7.269531,7.15039 l 5.694011,3.22806 6.28646,-4.28079 c 0,0 -3.08549,-4.04276 -4.71094,-6.09766 z m -53.679687,1.1875 c -3.788998,3.57447 -10.84375,11.05274 -10.84375,11.05274 l 7.891404,3.14052 10.133987,-4.74404 c 0,0 -4.65834,-6.24312 -7.181641,-9.44922 z"
         transform="matrix(0.93750004,0,0,0.93750004,-391.81742,1010.8333)"
         id="path4241"
         inkscape:connector-curvature="0"
         sodipodi:nodetypes="ccccccccccccccccccccccccccccccccccccccccccccccccccccccccccccccccccccccccccccccccccccccccccccccccccccccccccccccccccccccccccccccccccccccccccccccccccccccccccccccccccccccccccccccccccccccccccccccccccccccccccccccccccccccccccccccccccccccccc" />
      <rect
         y="1011.863"
         x="-393.14325"
         height="224.06447"
         width="1225.0625"
         id="rect4777"
         style="fill:none;fill-opacity:1;stroke:none;stroke-width:2.76732302;stroke-linecap:butt;stroke-linejoin:round;stroke-miterlimit:4;stroke-dasharray:none;stroke-opacity:1;paint-order:markers fill stroke"
         clip-path="none" />
      <rect
         y="1011.863"
         x="-393.14325"
         height="224.06447"
         width="1225.0625"
         id="rect4773"
         style="fill:none;fill-opacity:1;stroke:none;stroke-width:2.76732302;stroke-linecap:butt;stroke-linejoin:round;stroke-miterlimit:4;stroke-dasharray:none;stroke-opacity:1;paint-order:markers fill stroke"
         clip-path="none" />
      <rect
         y="1021.1437"
         x="-523.26257"
         height="210.80621"
         width="1451.7787"
         id="rect6041"
         style="fill:none;fill-opacity:1;stroke:none;stroke-width:1.84608352;stroke-linecap:butt;stroke-linejoin:round;stroke-miterlimit:4;stroke-dasharray:none;stroke-opacity:1;paint-order:markers fill stroke"
         clip-path="none" />
      <rect
         y="1021.1437"
         x="-523.26257"
         height="210.80621"
         width="1451.7787"
         id="rect6037"
         style="fill:none;fill-opacity:1;stroke:none;stroke-width:1.84608352;stroke-linecap:butt;stroke-linejoin:round;stroke-miterlimit:4;stroke-dasharray:none;stroke-opacity:1;paint-order:markers fill stroke"
         clip-path="none" />
      <rect
         y="1021.1437"
         x="-523.26257"
         height="210.80621"
         width="1451.7787"
         id="rect6033"
         style="fill:none;fill-opacity:1;stroke:none;stroke-width:1.84608352;stroke-linecap:butt;stroke-linejoin:round;stroke-miterlimit:4;stroke-dasharray:none;stroke-opacity:1;paint-order:markers fill stroke"
         clip-path="none" />
      <rect
         y="1021.1437"
         x="-523.26257"
         height="210.80621"
         width="1451.7787"
         id="rect6029"
         style="fill:none;fill-opacity:1;stroke:none;stroke-width:1.84608352;stroke-linecap:butt;stroke-linejoin:round;stroke-miterlimit:4;stroke-dasharray:none;stroke-opacity:1;paint-order:markers fill stroke"
         clip-path="none" />
      <rect
         y="1021.1437"
         x="-523.26257"
         height="210.80621"
         width="1451.7787"
         id="rect6025"
         style="fill:none;fill-opacity:1;stroke:none;stroke-width:1.84608352;stroke-linecap:butt;stroke-linejoin:round;stroke-miterlimit:4;stroke-dasharray:none;stroke-opacity:1;paint-order:markers fill stroke"
         clip-path="none" />
      <rect
         y="1021.1437"
         x="-523.26257"
         height="210.80621"
         width="1451.7787"
         id="rect6021"
         style="fill:none;fill-opacity:1;stroke:none;stroke-width:1.84608352;stroke-linecap:butt;stroke-linejoin:round;stroke-miterlimit:4;stroke-dasharray:none;stroke-opacity:1;paint-order:markers fill stroke"
         clip-path="none" />
      <rect
         y="1021.1437"
         x="-523.26257"
         height="210.80621"
         width="1451.7787"
         id="rect6017"
         style="fill:none;fill-opacity:1;stroke:none;stroke-width:1.84608352;stroke-linecap:butt;stroke-linejoin:round;stroke-miterlimit:4;stroke-dasharray:none;stroke-opacity:1;paint-order:markers fill stroke"
         clip-path="none" />
      <rect
         y="1021.1437"
         x="-523.26257"
         height="210.80621"
         width="1451.7787"
         id="rect6013"
         style="fill:none;fill-opacity:1;stroke:none;stroke-width:1.84608352;stroke-linecap:butt;stroke-linejoin:round;stroke-miterlimit:4;stroke-dasharray:none;stroke-opacity:1;paint-order:markers fill stroke"
         clip-path="none" />
      <rect
         y="1021.1437"
         x="-523.26257"
         height="210.80621"
         width="1451.7787"
         id="rect6009"
         style="fill:none;fill-opacity:1;stroke:none;stroke-width:1.84608352;stroke-linecap:butt;stroke-linejoin:round;stroke-miterlimit:4;stroke-dasharray:none;stroke-opacity:1;paint-order:markers fill stroke"
         clip-path="none" />
      <rect
         y="1021.1437"
         x="-523.26257"
         height="210.80621"
         width="1451.7787"
         id="rect6005"
         style="fill:none;fill-opacity:1;stroke:none;stroke-width:1.84608352;stroke-linecap:butt;stroke-linejoin:round;stroke-miterlimit:4;stroke-dasharray:none;stroke-opacity:1;paint-order:markers fill stroke"
         clip-path="none" />
      <rect
         y="1021.1437"
         x="-523.26257"
         height="210.80621"
         width="1451.7787"
         id="rect6001"
         style="fill:none;fill-opacity:1;stroke:none;stroke-width:1.84608352;stroke-linecap:butt;stroke-linejoin:round;stroke-miterlimit:4;stroke-dasharray:none;stroke-opacity:1;paint-order:markers fill stroke"
         clip-path="none" />
      <rect
         y="1021.1437"
         x="-523.26257"
         height="210.80621"
         width="1451.7787"
         id="rect5997"
         style="fill:none;fill-opacity:1;stroke:none;stroke-width:1.84608352;stroke-linecap:butt;stroke-linejoin:round;stroke-miterlimit:4;stroke-dasharray:none;stroke-opacity:1;paint-order:markers fill stroke"
         clip-path="none" />
      <rect
         y="1021.1437"
         x="-523.26257"
         height="210.80621"
         width="1451.7787"
         id="rect5993"
         style="fill:none;fill-opacity:1;stroke:none;stroke-width:1.84608352;stroke-linecap:butt;stroke-linejoin:round;stroke-miterlimit:4;stroke-dasharray:none;stroke-opacity:1;paint-order:markers fill stroke"
         clip-path="none" />
      <rect
         y="1021.1437"
         x="-523.26257"
         height="210.80621"
         width="1451.7787"
         id="rect5989"
         style="fill:none;fill-opacity:1;stroke:none;stroke-width:1.84608352;stroke-linecap:butt;stroke-linejoin:round;stroke-miterlimit:4;stroke-dasharray:none;stroke-opacity:1;paint-order:markers fill stroke"
         clip-path="none" />
      <rect
         y="1021.1437"
         x="-523.26257"
         height="210.80621"
         width="1451.7787"
         id="rect5985"
         style="fill:none;fill-opacity:1;stroke:none;stroke-width:1.84608352;stroke-linecap:butt;stroke-linejoin:round;stroke-miterlimit:4;stroke-dasharray:none;stroke-opacity:1;paint-order:markers fill stroke"
         clip-path="none" />
      <rect
         y="1021.1437"
         x="-523.26257"
         height="210.80621"
         width="1451.7787"
         id="rect5981"
         style="fill:none;fill-opacity:1;stroke:none;stroke-width:1.84608352;stroke-linecap:butt;stroke-linejoin:round;stroke-miterlimit:4;stroke-dasharray:none;stroke-opacity:1;paint-order:markers fill stroke"
         clip-path="none" />
      <rect
         y="1021.1437"
         x="-523.26257"
         height="210.80621"
         width="1451.7787"
         id="rect5977"
         style="fill:none;fill-opacity:1;stroke:none;stroke-width:1.84608352;stroke-linecap:butt;stroke-linejoin:round;stroke-miterlimit:4;stroke-dasharray:none;stroke-opacity:1;paint-order:markers fill stroke"
         clip-path="none" />
      <rect
         y="1021.1437"
         x="-523.26257"
         height="210.80621"
         width="1451.7787"
         id="rect5973"
         style="fill:none;fill-opacity:1;stroke:none;stroke-width:1.84608352;stroke-linecap:butt;stroke-linejoin:round;stroke-miterlimit:4;stroke-dasharray:none;stroke-opacity:1;paint-order:markers fill stroke"
         clip-path="none" />
      <rect
         y="1021.1437"
         x="-523.26257"
         height="210.80621"
         width="1451.7787"
         id="rect5969"
         style="fill:none;fill-opacity:1;stroke:none;stroke-width:1.84608352;stroke-linecap:butt;stroke-linejoin:round;stroke-miterlimit:4;stroke-dasharray:none;stroke-opacity:1;paint-order:markers fill stroke"
         clip-path="none" />
      <rect
         y="1021.1437"
         x="-523.26257"
         height="210.80621"
         width="1451.7787"
         id="rect5965"
         style="fill:none;fill-opacity:1;stroke:none;stroke-width:1.84608352;stroke-linecap:butt;stroke-linejoin:round;stroke-miterlimit:4;stroke-dasharray:none;stroke-opacity:1;paint-order:markers fill stroke"
         clip-path="none" />
      <rect
         y="1021.1437"
         x="-523.26257"
         height="210.80621"
         width="1451.7787"
         id="rect5961"
         style="fill:none;fill-opacity:1;stroke:none;stroke-width:1.84608352;stroke-linecap:butt;stroke-linejoin:round;stroke-miterlimit:4;stroke-dasharray:none;stroke-opacity:1;paint-order:markers fill stroke"
         clip-path="none" />
      <rect
         y="1021.1437"
         x="-523.26257"
         height="210.80621"
         width="1451.7787"
         id="rect5957"
         style="fill:none;fill-opacity:1;stroke:none;stroke-width:1.84608352;stroke-linecap:butt;stroke-linejoin:round;stroke-miterlimit:4;stroke-dasharray:none;stroke-opacity:1;paint-order:markers fill stroke"
         clip-path="none" />
      <rect
         y="1021.1437"
         x="-523.26257"
         height="210.80621"
         width="1451.7787"
         id="rect5953"
         style="fill:none;fill-opacity:1;stroke:none;stroke-width:1.84608352;stroke-linecap:butt;stroke-linejoin:round;stroke-miterlimit:4;stroke-dasharray:none;stroke-opacity:1;paint-order:markers fill stroke"
         clip-path="none" />
      <rect
         y="1021.1437"
         x="-523.26257"
         height="210.80621"
         width="1451.7787"
         id="rect5949"
         style="fill:none;fill-opacity:1;stroke:none;stroke-width:1.84608352;stroke-linecap:butt;stroke-linejoin:round;stroke-miterlimit:4;stroke-dasharray:none;stroke-opacity:1;paint-order:markers fill stroke"
         clip-path="none" />
      <rect
         y="1021.1437"
         x="-523.26257"
         height="210.80621"
         width="1451.7787"
         id="rect5945"
         style="fill:none;fill-opacity:1;stroke:none;stroke-width:1.84608352;stroke-linecap:butt;stroke-linejoin:round;stroke-miterlimit:4;stroke-dasharray:none;stroke-opacity:1;paint-order:markers fill stroke"
         clip-path="none" />
      <rect
         y="1021.1437"
         x="-523.26257"
         height="210.80621"
         width="1451.7787"
         id="rect5941"
         style="fill:none;fill-opacity:1;stroke:none;stroke-width:1.84608352;stroke-linecap:butt;stroke-linejoin:round;stroke-miterlimit:4;stroke-dasharray:none;stroke-opacity:1;paint-order:markers fill stroke"
         clip-path="none" />
      <rect
         y="1021.1437"
         x="-523.26257"
         height="210.80621"
         width="1451.7787"
         id="rect5937"
         style="fill:none;fill-opacity:1;stroke:none;stroke-width:1.84608352;stroke-linecap:butt;stroke-linejoin:round;stroke-miterlimit:4;stroke-dasharray:none;stroke-opacity:1;paint-order:markers fill stroke"
         clip-path="none" />
      <rect
         y="1021.1437"
         x="-523.26257"
         height="210.80621"
         width="1451.7787"
         id="rect5933"
         style="fill:none;fill-opacity:1;stroke:none;stroke-width:1.84608352;stroke-linecap:butt;stroke-linejoin:round;stroke-miterlimit:4;stroke-dasharray:none;stroke-opacity:1;paint-order:markers fill stroke"
         clip-path="none" />
      <rect
         y="1021.1437"
         x="-523.26257"
         height="210.80621"
         width="1451.7787"
         id="rect5929"
         style="fill:none;fill-opacity:1;stroke:none;stroke-width:1.84608352;stroke-linecap:butt;stroke-linejoin:round;stroke-miterlimit:4;stroke-dasharray:none;stroke-opacity:1;paint-order:markers fill stroke"
         clip-path="none" />
      <rect
         y="1021.1437"
         x="-523.26257"
         height="210.80621"
         width="1451.7787"
         id="rect5925"
         style="fill:none;fill-opacity:1;stroke:none;stroke-width:1.84608352;stroke-linecap:butt;stroke-linejoin:round;stroke-miterlimit:4;stroke-dasharray:none;stroke-opacity:1;paint-order:markers fill stroke"
         clip-path="none" />
      <rect
         y="1021.1437"
         x="-523.26257"
         height="210.80621"
         width="1451.7787"
         id="rect5921"
         style="fill:none;fill-opacity:1;stroke:none;stroke-width:1.84608352;stroke-linecap:butt;stroke-linejoin:round;stroke-miterlimit:4;stroke-dasharray:none;stroke-opacity:1;paint-order:markers fill stroke"
         clip-path="none" />
      <rect
         y="1021.1437"
         x="-523.26257"
         height="210.80621"
         width="1451.7787"
         id="rect5917"
         style="fill:none;fill-opacity:1;stroke:none;stroke-width:1.84608352;stroke-linecap:butt;stroke-linejoin:round;stroke-miterlimit:4;stroke-dasharray:none;stroke-opacity:1;paint-order:markers fill stroke"
         clip-path="none" />
      <rect
         y="1021.1437"
         x="-523.26257"
         height="210.80621"
         width="1451.7787"
         id="rect5913"
         style="fill:none;fill-opacity:1;stroke:none;stroke-width:1.84608352;stroke-linecap:butt;stroke-linejoin:round;stroke-miterlimit:4;stroke-dasharray:none;stroke-opacity:1;paint-order:markers fill stroke"
         clip-path="none" />
      <rect
         y="1021.1437"
         x="-523.26257"
         height="210.80621"
         width="1451.7787"
         id="rect5909"
         style="fill:none;fill-opacity:1;stroke:none;stroke-width:1.84608352;stroke-linecap:butt;stroke-linejoin:round;stroke-miterlimit:4;stroke-dasharray:none;stroke-opacity:1;paint-order:markers fill stroke"
         clip-path="none" />
      <rect
         y="1021.1437"
         x="-523.26257"
         height="210.80621"
         width="1451.7787"
         id="rect5901"
         style="fill:none;fill-opacity:1;stroke:none;stroke-width:1.84608352;stroke-linecap:butt;stroke-linejoin:round;stroke-miterlimit:4;stroke-dasharray:none;stroke-opacity:1;paint-order:markers fill stroke"
         clip-path="none" />
      <g
         aria-label="POWDER MOTION LABS"
         transform="matrix(0.90825528,0,0,1.0912257,-467.86481,176.17769)"
         style="font-style:normal;font-variant:normal;font-weight:bold;font-stretch:normal;font-size:166.915802px;line-height:125%;font-family:sans-serif;-inkscape-font-specification:'sans-serif Bold';letter-spacing:0px;word-spacing:0px;fill:#000000;fill-opacity:1;stroke:none;stroke-width:0.3766778;stroke-linecap:butt;stroke-linejoin:round;stroke-opacity:1;stroke-miterlimit:4;stroke-dasharray:none;paint-order:stroke markers fill"
         id="text4494"
         clip-path="none">
        <path
           style="font-size:137.50001526px;letter-spacing:-5.00000048px;fill:#000000;fill-opacity:1;stroke:none;stroke-width:0.3766778;stroke-miterlimit:4;stroke-dasharray:none;stroke-opacity:1;stroke-linecap:butt;stroke-linejoin:round;paint-order:stroke markers fill"
           d="m 152.47318,784.97846 -10.492,99.49836 h 22.375 c 1.26459,-11.49789 4.19323,-35.78332 4.19323,-35.78332 0,0 2.96911,0.008 4.89925,0.0239 12.23657,-0.18625 24.94018,1.22878 36.84253,-4.69455 9.15695,-4.23531 15.82811,-13.60417 17.31685,-23.42591 2.07991,-10.15326 0.49672,-21.48087 -7.17956,-27.77323 -8.53973,-7.48953 -20.79195,-8.06336 -32.1693,-7.84519 h -35.78601 z m 22.45675,15.6907 c 6.59486,0.17493 13.33416,-0.45616 19.78112,0.57164 6.68647,1.11321 11.21469,7.58194 10.34345,14.65158 -0.0975,6.96216 -4.92827,14.32868 -11.93278,16.11239 -6.36412,1.68733 -12.73142,0.79572 -19.08355,1.02185 -1.50516,-0.0119 -4.15484,0.009 -4.15484,0.009 l 3.40777,-32.37846 c 0,0 0.89606,10e-4 1.63875,0.012 z"
           id="path1082"
           inkscape:connector-curvature="0"
           sodipodi:nodetypes="cccccccccccccccccccc" />
        <path
           d="m 270.21032,816.53165 q -9.56288,0 -15.5992,7.0635 -6.03633,7.06349 -7.42669,19.88645 -1.38446,12.76863 3.12013,19.83212 4.50457,7.06349 14.06745,7.06349 9.61722,0 15.65355,-7.06349 6.03633,-7.06349 7.42079,-19.83212 1.39036,-12.82296 -3.11423,-19.88645 -4.50458,-7.0635 -14.1218,-7.0635 z m 1.64369,-15.15934 q 19.56045,0 29.43108,11.19292 9.87064,11.19292 7.73208,30.91637 -2.13266,19.66912 -14.43052,30.86204 -12.29787,11.19292 -31.85832,11.19292 -19.50611,0 -29.43107,-11.19292 -9.87065,-11.19292 -7.73799,-30.86204 2.13856,-19.72345 14.43643,-30.91637 12.3522,-11.19292 31.85831,-11.19292 z"
           style="font-size:111.27719879px;fill:#000000;fill-opacity:1;stroke:none;stroke-width:0.3766778;stroke-miterlimit:4;stroke-dasharray:none;stroke-opacity:1;stroke-linecap:butt;stroke-linejoin:round;paint-order:stroke markers fill"
           id="path1084"
           inkscape:connector-curvature="0" />
        <path
           d="m 309.20529,803.49895 h 20.04945 l 7.62623,58.95301 20.30174,-58.95301 h 20.15813 l 7.51756,58.95301 20.41041,-58.95301 h 19.88645 l -27.92153,81.12152 h -24.12455 l -8.03801,-61.66974 -21.24832,61.66974 H 319.6983 Z"
           style="font-size:111.27719879px;fill:#000000;fill-opacity:1;stroke:none;stroke-width:0.3766778;stroke-miterlimit:4;stroke-dasharray:none;stroke-opacity:1;stroke-linecap:butt;stroke-linejoin:round;paint-order:stroke markers fill"
           id="path1086"
           inkscape:connector-curvature="0" />
        <path
           d="m 441.07952,819.31032 -5.36701,49.4988 h 7.49817 q 12.82295,0 20.24973,-6.35715 7.4811,-6.35714 8.79487,-18.47375 1.30787,-12.06228 -4.74621,-18.36509 -6.05409,-6.30281 -18.93138,-6.30281 z m -19.20444,-15.81136 h 22.05983 q 18.47375,0 27.20461,2.6624 8.7911,2.60806 14.57352,8.91087 5.1101,5.48779 7.10351,12.65995 1.99341,7.17216 1.00956,16.24604 -0.99564,9.18254 -4.55025,16.40904 -3.54872,7.17216 -9.84887,12.65995 -7.20355,6.30281 -16.62043,8.96521 -9.41099,2.60806 -27.66741,2.60806 h -22.05983 z"
           style="font-size:111.27719879px;fill:#000000;fill-opacity:1;stroke:none;stroke-width:0.3766778;stroke-miterlimit:4;stroke-dasharray:none;stroke-opacity:1;stroke-linecap:butt;stroke-linejoin:round;paint-order:stroke markers fill"
           id="path1088"
           inkscape:connector-curvature="0" />
        <path
           d="m 500.54573,803.5358 h 56.45362 l -1.71437,15.81136 h -35.53481 l -1.6378,15.10501 h 33.41576 l -1.71437,15.81136 H 516.398 l -2.01484,18.58243 h 36.73017 l -1.71438,15.81136 h -57.64898 z"
           style="font-size:111.27719879px;fill:#000000;fill-opacity:1;stroke:none;stroke-width:0.3766778;stroke-miterlimit:4;stroke-dasharray:none;stroke-opacity:1;stroke-linecap:butt;stroke-linejoin:round;paint-order:stroke markers fill"
           id="path1090"
           inkscape:connector-curvature="0" />
        <path
           d="m 588.11396,839.59426 q 6.57448,0 9.66498,-2.44506 3.14485,-2.44505 3.75165,-8.04151 0.60092,-5.54213 -2.01959,-7.93285 -2.56618,-2.39072 -9.14066,-2.39072 h -8.8022 l -2.25638,20.81014 z m -10.36929,14.45299 -3.32861,30.69904 h -20.91881 l 8.79576,-81.12152 h 31.94873 q 16.0287,0 22.88928,5.37913 6.91494,5.37912 5.65419,17.00672 -0.87191,8.04151 -5.34368,13.2033 -4.41743,5.16178 -12.50672,7.60684 4.18639,0.97802 7.17808,4.45543 3.05193,3.42308 5.76937,10.43224 l 8.85799,23.03786 h -22.27717 l -7.70322,-20.15813 q -2.32857,-6.08547 -5.1841,-8.31319 -2.80117,-2.22772 -7.90862,-2.22772 z"
           style="font-size:111.27719879px;fill:#000000;fill-opacity:1;stroke:none;stroke-width:0.3766778;stroke-miterlimit:4;stroke-dasharray:none;stroke-opacity:1;stroke-linecap:butt;stroke-linejoin:round;paint-order:stroke markers fill"
           id="path1092"
           inkscape:connector-curvature="0" />
        <path
           style="font-size:137.5px;fill:#000000;fill-opacity:1;stroke:none;stroke-width:0.3766778;stroke-miterlimit:4;stroke-dasharray:none;stroke-opacity:1;stroke-linecap:butt;stroke-linejoin:round;paint-order:stroke markers fill"
           d="m 642.71827,784.99194 -10.82152,99.80468 h 24.07226 c 2.83609,-25.66701 5.61021,-52.17523 8.06276,-73.70181 l 17.48164,54.43228 h 16.09571 c 9.68999,-17.99639 19.59536,-36.33841 29.36795,-54.26309 -2.59263,23.71489 -5.3722,49.27647 -8.00222,73.53262 h 24.00586 l 10.82152,-99.80468 h -32.47265 c -9.6307,17.86206 -19.23159,35.89757 -28.94519,53.68743 -6.29304,-17.94141 -12.10992,-37.86435 -17.12708,-53.68743 h -32.53906 z"
           id="path1094"
           inkscape:connector-curvature="0"
           sodipodi:nodetypes="ccccccccccccccc" />
        <path
           d="m 796.45758,817.56871 q -9.56288,0 -15.59921,7.0635 -6.03632,7.06349 -7.42668,19.88645 -1.38446,12.76863 3.12012,19.83212 4.50458,7.06349 14.06746,7.06349 9.61722,0 15.65355,-7.06349 6.03633,-7.06349 7.42079,-19.83212 1.39036,-12.82296 -3.11423,-19.88645 -4.50458,-7.0635 -14.1218,-7.0635 z m 1.64369,-15.15934 q 19.56045,0 29.43108,11.19292 9.87064,11.19292 7.73208,30.91637 -2.13266,19.66912 -14.43052,30.86204 -12.29787,11.19292 -31.85832,11.19292 -19.50611,0 -29.43108,-11.19292 -9.87064,-11.19292 -7.73798,-30.86204 2.13856,-19.72345 14.43642,-30.91637 12.35221,-11.19292 31.85832,-11.19292 z"
           style="font-size:111.27719879px;fill:#000000;fill-opacity:1;stroke:none;stroke-width:0.3766778;stroke-miterlimit:4;stroke-dasharray:none;stroke-opacity:1;stroke-linecap:butt;stroke-linejoin:round;paint-order:stroke markers fill"
           id="path1096"
           inkscape:connector-curvature="0" />
        <path
           d="m 835.32457,803.87641 h 74.76436 l -1.71437,15.81136 h -26.89561 l -7.08139,65.31016 h -20.91881 l 7.08139,-65.31016 H 833.6102 Z"
           style="font-size:111.27719879px;fill:#000000;fill-opacity:1;stroke:none;stroke-width:0.3766778;stroke-miterlimit:4;stroke-dasharray:none;stroke-opacity:1;stroke-linecap:butt;stroke-linejoin:round;paint-order:stroke markers fill"
           id="path1098"
           inkscape:connector-curvature="0" />
        <path
           d="m 913.89504,803.62477 h 20.91881 l -8.79576,81.12152 h -20.91881 z"
           style="font-size:111.27719879px;fill:#000000;fill-opacity:1;stroke:none;stroke-width:0.3766778;stroke-miterlimit:4;stroke-dasharray:none;stroke-opacity:1;stroke-linecap:butt;stroke-linejoin:round;paint-order:stroke markers fill"
           id="path1100"
           inkscape:connector-curvature="0" />
        <path
           d="m 979.21165,817.56872 q -9.56289,0 -15.59921,7.0635 -6.03632,7.06349 -7.42668,19.88645 -1.38446,12.76863 3.12012,19.83212 4.50457,7.06349 14.06746,7.06349 9.6172,0 15.65354,-7.06349 6.03635,-7.06349 7.42075,-19.83212 1.3904,-12.82296 -3.1142,-19.88645 -4.50455,-7.0635 -14.12178,-7.0635 z m 1.64369,-15.15934 q 19.56036,0 29.43096,11.19292 9.8706,11.19292 7.732,30.91637 -2.1327,19.66912 -14.4304,30.86204 -12.29787,11.19292 -31.85824,11.19292 -19.50611,0 -29.43108,-11.19292 -9.87064,-11.19292 -7.73798,-30.86204 2.13856,-19.72345 14.43642,-30.91637 12.35221,-11.19292 31.85832,-11.19292 z"
           style="font-size:111.27719879px;fill:#000000;fill-opacity:1;stroke:none;stroke-width:0.3766778;stroke-miterlimit:4;stroke-dasharray:none;stroke-opacity:1;stroke-linecap:butt;stroke-linejoin:round;paint-order:stroke markers fill"
           id="path1102"
           inkscape:connector-curvature="0" />
        <path
           d="m 1025.5163,803.83955 h 23.3639 l 23.4709,55.6386 6.0327,-55.6386 h 19.8322 l -8.7958,81.12152 h -23.3639 l -23.471,-55.6386 -6.0327,55.6386 h -19.8321 z"
           style="font-size:111.27719879px;fill:#000000;fill-opacity:1;stroke:none;stroke-width:0.3766778;stroke-miterlimit:4;stroke-dasharray:none;stroke-opacity:1;stroke-linecap:butt;stroke-linejoin:round;paint-order:stroke markers fill"
           id="path1104"
           inkscape:connector-curvature="0" />
        <path
           style="font-style:normal;font-variant:normal;font-weight:bold;font-stretch:normal;font-size:137.5px;font-family:sans-serif;-inkscape-font-specification:'sans-serif Bold';word-spacing:0px;fill:#000000;fill-opacity:1;stroke:none;stroke-width:0.3766778;stroke-miterlimit:4;stroke-dasharray:none;stroke-opacity:1;stroke-linecap:butt;stroke-linejoin:round;paint-order:stroke markers fill"
           d="m 1107.3159,786.80672 -10.5861,98.39219 h 68.6309 l 1.655,-15.8389 c -14.8167,-0.0395 -32.7661,0.1078 -47.5627,-0.0299 2.4816,-25.62981 7.4749,-55.87898 10.3416,-82.52336 h -22.4788 z"
           id="path1106"
           inkscape:connector-curvature="0"
           sodipodi:nodetypes="cccccccc" />
        <path
           d="m 1222.4342,870.4364 h -32.7094 l -6.7643,14.77901 h -21.0275 l 38.8428,-81.12152 h 24.9396 l 21.2512,81.12152 h -21.0275 z m -25.8614,-15.05067 h 22.2228 l -7.5847,-32.27474 z"
           style="font-size:111.27719879px;fill:#000000;fill-opacity:1;stroke:none;stroke-width:0.3766778;stroke-miterlimit:4;stroke-dasharray:none;stroke-opacity:1;stroke-linecap:butt;stroke-linejoin:round;paint-order:stroke markers fill"
           id="path1108"
           inkscape:connector-curvature="0" />
        <path
           d="m 1280.7569,835.49006 q 4.9444,0 7.7337,-2.17338 2.7895,-2.17338 3.249,-6.41148 0.4536,-4.18376 -1.8645,-6.35714 -2.3121,-2.22772 -7.2565,-2.22772 h -11.5733 l -1.8617,17.16972 z m -3.1408,35.48048 q 6.3028,0 9.7429,-2.6624 3.4945,-2.66239 4.0778,-8.04151 0.5714,-5.27045 -2.2972,-7.87851 -2.8627,-2.6624 -9.2199,-2.6624 h -12.2796 l -2.3036,21.24482 z m 22.6156,-29.17767 q 6.5254,1.95605 9.6485,7.2265 3.1234,5.27046 2.2928,12.93163 -1.2726,11.73627 -9.8299,17.49573 -8.5574,5.75947 -24.7491,5.75947 h -34.7198 l 8.7958,-81.12152 h 31.4054 q 16.898,0 23.8967,5.10745 7.0532,5.10745 5.8336,16.35471 -0.6421,5.92247 -3.8668,10.10623 -3.2189,4.12943 -8.7072,6.1398 z"
           style="font-size:111.27719879px;fill:#000000;fill-opacity:1;stroke:none;stroke-width:0.3766778;stroke-miterlimit:4;stroke-dasharray:none;stroke-opacity:1;stroke-linecap:butt;stroke-linejoin:round;paint-order:stroke markers fill"
           id="path1110"
           inkscape:connector-curvature="0" />
        <path
           d="m 1376.7914,805.75211 -1.8617,17.16972 q -6.3591,-2.9884 -12.5513,-4.50977 -6.1923,-1.52137 -11.8431,-1.52137 -7.4982,0 -11.3079,2.06472 -3.81,2.06471 -4.2813,6.41148 -0.3535,3.26007 1.8368,5.10745 2.2507,1.79304 8.4665,3.09707 l 8.7165,1.79304 q 13.2347,2.71673 18.3388,8.25885 5.1042,5.54213 3.9967,15.75703 -1.4552,13.42064 -10.1552,19.99512 -8.6398,6.52015 -24.9945,6.52015 -7.7155,0 -15.3263,-1.46704 -7.6108,-1.46703 -15.0684,-4.34676 l 1.9148,-17.65874 q 7.322,4.12943 14.3188,6.24848 7.0569,2.06471 13.7944,2.06471 6.8462,0 10.734,-2.28205 3.8879,-2.28205 4.3474,-6.52015 0.4123,-3.80342 -1.8632,-5.86813 -2.2211,-2.06471 -9.4338,-3.69475 l -7.9015,-1.79304 q -11.8882,-2.60806 -16.9203,-8.31319 -4.9779,-5.70513 -3.9294,-15.37668 1.3138,-12.11661 9.845,-18.63676 8.5312,-6.52015 23.2015,-6.52015 6.6832,0 13.6347,1.03236 6.9574,0.97802 14.292,2.9884 z"
           style="font-size:111.27719879px;fill:#000000;fill-opacity:1;stroke:none;stroke-width:0.3766778;stroke-miterlimit:4;stroke-dasharray:none;stroke-opacity:1;stroke-linecap:butt;stroke-linejoin:round;paint-order:stroke markers fill"
           id="path1112"
           inkscape:connector-curvature="0" />
      </g>
      <rect
         y="1011.863"
         x="-393.14325"
         height="224.06447"
         width="1225.0625"
         id="rect4765"
         style="fill:none;fill-opacity:1;stroke:none;stroke-width:2.76732302;stroke-linecap:butt;stroke-linejoin:round;stroke-miterlimit:4;stroke-dasharray:none;stroke-opacity:1;paint-order:markers fill stroke"
         clip-path="none" />
    </g>
  </g>
</svg>
